<svg xmlns="http://www.w3.org/2000/svg" viewBox="95 45 310 110">
  <!-- Background gradient -->
  <defs>
    <linearGradient id="bgGradient" x1="0%" y1="0%" x2="100%" y2="100%">
      <stop offset="0%" stop-color="#4A00E0" />
      <stop offset="100%" stop-color="#8E2DE2" />
    </linearGradient>
  </defs>

  <!-- Main logo shape - rounded rectangle -->
  <rect x="100" y="50" width="300" height="100" rx="20" ry="20" fill="url(#bgGradient)" />

  <!-- Tech nodes/dots - moved up between text and top -->
  <circle cx="130" cy="67" r="4" fill="#ffffff" />
  <circle cx="145" cy="67" r="4" fill="#ffffff" />
  <circle cx="160" cy="67" r="4" fill="#ffffff" />

  <!-- Name: MitchAI -->
  <text x="140" y="110" font-family="'Arial', sans-serif" font-weight="700" font-size="40" fill="#ffffff">Mitch<tspan fill="#64FFDA">AI</tspan></text>

  <!-- Slogan -->
  <text x="155" y="135" font-family="'Arial', sans-serif" font-size="14" fill="#ffffff" font-style="italic">Intelligent Code Reviews</text>

  <!-- Robot icon -->
  <g transform="translate(355, 100) scale(0.3)">
    <circle cx="0" cy="-30" r="30" fill="#64FFDA" />
    <rect x="-25" y="5" width="50" height="40" rx="5" ry="5" fill="#64FFDA" />
    <rect x="-35" y="0" width="70" height="30" rx="10" ry="10" fill="#64FFDA" />
    <circle cx="-15" cy="-20" r="5" fill="#4A00E0" />
    <circle cx="15" cy="-20" r="5" fill="#4A00E0" />
    <rect x="-10" y="-5" width="20" height="2" rx="1" ry="1" fill="#4A00E0" />
    <rect x="-20" y="45" width="10" height="20" fill="#64FFDA" />
    <rect x="10" y="45" width="10" height="20" fill="#64FFDA" />
  </g>
</svg>
